<svg version="1.2" xmlns="http://www.w3.org/2000/svg" viewBox="0 0 393 110" width="393" height="110" fill="white"><style></style><path  d="m123.6 61.1c-1.2 1.3-2.9 2.1-4.6 2.1-1.9 0-3.6-0.8-4.9-2.2q-1-1.2-1.6-2.7h20.3c0.2-0.9 0.3-1.7 0.3-2.6 0-8-6.5-14.4-14.5-14.4-7.9 0-14.4 6.4-14.4 14.4 0 8 6.5 14.5 14.4 14.5 4.4 0 8.4-2 11-5.1zm-11.3-7.6c0.4-1.2 1-2.2 1.7-3.1 1.4-1.4 3.1-2.2 4.9-2.2 1.8 0 3.5 0.8 4.8 2.2 0.8 0.9 1.4 1.9 1.7 3.1z"/><path  d="m151.4 42.2v-10.1h-8v10.1h-5.7v7.4h5.7v19.8h8v-19.8h6.3v-7.4z"/><path  d="m197.4 42.2l-6.8 13.2-7-13.2h-7.8l3.9 7.5-3 5.7-6.9-13.2h-7.8l14.2 27.2h1l6.4-12.2 6.5 12.2h1l14.2-27.2z"/><path  d="m224.1 41.4c-8.4 0-15.1 6.4-15.1 14.4 0 8 6.7 14.4 15.1 14.4 8.3 0 15-6.4 15-14.4 0-8-6.7-14.4-15-14.4zm5.1 19.7c-1.4 1.4-3.1 2.1-5.1 2.1-1.8 0-3.6-0.7-4.9-2.1-1.5-1.5-2.1-3.3-2.1-5.3 0-2 0.6-3.9 2.1-5.3 1.3-1.4 3.1-2.2 4.9-2.2 2 0 3.7 0.8 5.1 2.2 1.3 1.4 2 3.3 2 5.2 0 2-0.7 3.9-2 5.4z"/><path  d="m249.7 42.2h-6.2v27.2h7.9v-15c0.9-4.4 5.5-7.1 10.1-5.1l3.1-7c-1.4-0.5-3-0.8-4.6-0.8-3.6 0-7.2 1.2-9.2 3.8z"/><path  d="m299.4 69.4l-13.4-15.8 11-11.4h-10.7l-8.1 8.8v-28.5h-8.9v46.9h8.9v-9.1l1.8-1.9 9.1 11z"/><path  d="m303.9 34v-8.8h8.1v8.8zm0 35.4v-27.2h8.1v27.2z"/><path  d="m323.5 42.2h-6.5v27.2h8v-13.5c0-3.9 2.8-7.4 6.5-7.4 3.8 0 6.6 3.5 6.6 7.4v13.5h7.7v-13.5c0-8-6-14.4-13.3-14.4-2.8 0-5.6 1.2-7.8 3.1z"/><path  d="m379.9 45v-5.2l-13 2.4q-1-0.1-1.9-0.1c-7.3 0-13.3 5.5-13.3 12.3 0 3.8 1.9 7.3 4.9 9.6-2.1 2.9-5 7.6-6.3 11.8q-0.7 1.7-0.7 3.6c0 3.3 1.4 5.9 4.1 7.7 2.6 1.6 6.4 2.4 11.6 2.4 5.2 0 9-0.8 11.6-2.4 2.7-1.8 4.1-4.4 4.1-7.7 0-3.1-1.5-5.8-4.3-7.6-2.6-1.6-6.4-2.5-11.4-2.5-1.8 0-3.4 0.2-4.8 0.4 0.4-1.2 1-2.3 1.6-3.3 0.9 0.2 1.9 0.3 2.9 0.3 7.4 0 13.4-5.5 13.4-12.3 0-3-1.2-5.8-3.1-7.9zm-14.9 4.2c3.1 0 5.7 2.2 5.7 5.2 0 2.7-2.4 5.2-5.7 5.2-2.9 0-5.7-2.1-5.7-5.2 0-2.7 2.5-5.2 5.7-5.2zm0.3 33.2c-5.1 0-8-0.9-8-3 0-1.7 3-2.9 8-2.9 4.7 0 7.9 1.1 7.9 2.9 0 2.1-2.5 3-7.9 3z"/><path fill-rule="evenodd" d="m67.6 8.6l1.1-1.1 1.2-1.2 24.1 0.3 2.6 2.5 0.1 44.5c0 24.4 0 45.2-0.2 46.1q-0.2 1.8-1.3 2.9l-1.1 1.1h-24.9l-1.2-1.5c-0.7-0.8-3.8-4.8-7-9-21.4-28.2-21.8-28.7-21.4-29 0.1-0.1 2.3-0.7 4.9-1.3 3.9-1 4.8-1.1 5.2-0.6 0.2 0.2 1.2 0.8 2.1 1.1 1.7 0.6 4.5 0.6 7 0 0.6-0.1 2.3 1.7 9.1 10.4 4.7 5.7 8.5 10.7 8.7 11 0.2 0.3 0 1-0.3 1.7-0.9 1.7-0.6 5 0.6 6.6 1.7 2.5 5.4 3.5 8.3 2.3 1.7-0.8 3.7-3.1 4-4.8 0.9-4.7-3.6-8.6-8.5-7.6-1.1 0.3-2 0.4-2 0.3-0.1 0-2.2-2.7-4.8-5.9-11.6-14.4-12.6-15.7-12.3-16.2 0-0.1 0.1-0.2 0.2-0.3 0.9-1.2 1.2-1.2 7.7-1.2h6.5l1.3 1.6c1.4 1.7 3.8 3 5.6 3 0.7 0 1.9-0.3 2.8-0.7 3.3-1.5 4.7-4.8 3.5-7.9-0.8-2.2-2.4-3.6-4.6-4.2-3.7-1-7 1.1-8.3 5.2-0.1 0.6-0.8 0.7-6.5 0.7h-6.4l-0.2-1.9c-0.1-1-0.3-2.1-0.5-2.5-0.2-0.5 0.2-1.2 1.3-2.3l1.6-1.7 1.2 1.2c0.6 0.7 1.2 1.3 1.3 1.3 0.1 0 0.2-1.1 0.2-2.5 0.1-2.5 0.1-2.6 5.4-11.4 2.9-4.9 5.4-9.2 5.6-9.7 0.4-0.8 0.6-0.8 2.5-0.6 6.3 0.6 9.9-6.3 5.7-10.8-2.7-2.8-7-3-9.7-0.3-2.3 2.2-2.7 5.7-0.9 8.1l0.8 1.2-1.6 2.8c-5.1 8.7-8.2 13.9-8.4 13.9-0.1 0-0.1-7.6-0.1-16.8zm-58.9-0.3c0.3-0.6 1-1.3 1.4-1.5 0.5-0.3 5.6-0.4 12.8-0.4l11.9-0.1 1.4 1.7c0.8 0.9 3.3 4.3 5.7 7.5 15.6 20.9 21.1 28.4 21.8 29.6l0.9 1.4-1.9 1.9-1.9 1.9-1.5-1.1c-1.2-0.7-2.2-1-4-1.2-2.3-0.1-3.5 0.2-6.5 1.8-0.1 0.1-3.3-3.5-7-7.9-3.7-4.5-8.4-10.2-10.5-12.6l-3.8-4.6 0.6-1.9c0.7-2.6 0.2-4.8-1.6-6.6-3.8-3.8-10.6-1.6-11.3 3.8-0.6 4.6 4.6 8.6 8.9 6.8 1.3-0.5 1.6-0.5 2-0.1 0.2 0.3 2.8 3.5 5.8 7.1 3 3.6 7.5 9 9.9 12 2.5 3 4.7 5.6 4.9 5.7 0.2 0.2 0.2 0.6 0.1 0.9-0.2 0.6-1.4 0.6-10.2 0.6-8.7 0-9.9 0-10.4-0.6-3-3.9-5-4.9-8-4.1-3.1 0.9-4.8 3.1-4.9 6.3-0.1 6.6 9.2 8.6 12.2 2.6l0.9-1.8h20l0.4 2c0.3 1.3 0.3 2.1 0.1 2.3-0.8 0.5-8.6 2-9.2 1.7-0.6-0.1-1.1 0.7-2.9 4-1.2 2.3-3.9 7.2-6.1 10.9l-4.1 6.8-1.5-0.2c-6.1-1-10.4 5.9-6.5 10.5 1.7 1.8 3.1 2.5 5.3 2.5 5.2-0.1 8.3-5.2 5.8-9.8l-0.9-1.7 2.1-3.3c1.1-1.8 3.3-5.4 4.9-8.1 1.5-2.6 2.9-4.8 3.1-4.8 0.2 0 0.3 7.5 0.3 16.6v16.6l-1.1 1.1-1.2 1.1h-12.1c-7.6 0-12.4-0.1-12.9-0.4-0.2-0.1-0.4-0.2-0.5-0.3-1.5-0.9-1.4-4.1-1.4-47.9 0-41.9 0.1-45.7 0.7-46.7zm69.4 12.4c0-1.1 1-2.9 2-3.6 2.5-1.8 6.9 0.5 6.9 3.6 0 2.2-2.2 4.3-4.5 4.3-2.2 0-4.4-2.1-4.4-4.3zm-60.2-1.6c0.4-0.8 1.2-1.7 1.9-2 3.1-1.5 6.1 0.2 6.1 3.5 0 4.7-6.6 5.9-8.1 1.5-0.5-1.4-0.5-1.8 0.1-3zm34.4 41.8c-4-2-4.4-7.5-0.6-9.8 3.7-2.3 8.8 0.5 8.9 4.8 0 4.2-4.4 6.9-8.3 5zm-36.7-5.6c-0.3-1.4 0.8-3.8 2.1-4.5 2.1-1 4.6-0.2 5.7 1.9 2 4-3.2 7.9-6.4 4.8-0.7-0.6-1.3-1.6-1.4-2.2zm62.9 2.6c0-1.2 1.2-3.3 2.2-3.9 3.7-2 7.9 1.7 6.1 5.4-1.1 2.3-4.3 3.4-6.3 2-1-0.7-2-2.5-2-3.5zm-0.4 31.6c0-1.8 0.9-3.3 2.5-4 1.6-0.7 2.3-0.7 3.9 0.1 2.3 1.1 3.1 3.4 2 5.5-0.8 1.6-2.3 2.4-4.2 2.4-2.2 0-4.2-1.9-4.2-4zm-56.2 4c-4.1 0-6-4.6-3-7.2 1.7-1.3 4.2-1.3 5.8 0 1.4 1.2 1.8 2.6 1.2 4.3-0.6 1.9-2.1 2.9-4 2.9z"/></svg>